<svg width="568" height="526" viewBox="0 0 568 526" fill="none" xmlns="http://www.w3.org/2000/svg">
<g clip-path="url(#clip0_69_49)" filter="url(#filter0_dddddd_69_49)">
<path d="M69.7053 43.4308C69.1973 43.1324 68.6031 42.8961 67.8276 42.6847C66.9613 42.4526 66.0179 42.3697 65.0291 42.436C64.7207 42.4568 64.4032 42.4941 64.0812 42.5438C63.9814 42.5604 63.877 42.577 63.7773 42.5936C61.6002 42.979 59.4684 43.8785 57.7721 45.1303C54.1527 47.7955 52.4247 50.9416 52.343 55.0202C52.275 58.3942 53.4225 61.7185 55.586 64.3755C56.2073 65.1381 58.4479 67.6583 61.2192 67.9982C61.8179 68.0728 62.471 68.0977 63.106 68.0977C64.4395 68.0977 65.7094 67.9775 66.3308 67.907C66.4941 67.8904 66.6211 67.7743 66.6347 67.6251C66.6528 67.4759 66.5531 67.335 66.3988 67.2894C62.92 66.2117 60.1896 64.4749 58.4978 62.2657C56.9194 60.2056 56.0531 57.6481 56.0531 55.0575C56.0531 52.2224 57.3594 49.4245 59.8268 46.9707C61.3416 45.4619 63.4416 44.4256 65.5779 44.1272C66.2174 44.036 66.8751 44.0402 67.6416 44.1272C67.9908 44.1687 68.3628 44.2267 68.8118 44.3137C68.898 44.3303 68.9796 44.3552 69.0658 44.3759C69.2654 44.4298 69.4921 44.4878 69.7325 44.4754C70.0682 44.4547 70.1634 44.2847 70.1906 44.1852C70.2904 43.8951 69.8958 43.5428 69.7053 43.4308Z" fill="#E6E6E6"/>
<path d="M83.2577 47.4722C81.4752 44.7573 78.645 42.5024 75.5018 41.2755C74.1139 40.7366 72.7941 40.405 71.2293 40.2061C70.3584 40.0942 69.5874 40.061 68.7256 40.0942C68.1541 40.119 67.7142 40.2807 67.4557 40.5667C67.2379 40.8029 67.1472 41.1138 67.2017 41.4786C67.2198 41.5988 67.2652 41.9221 67.4602 42.291C67.4874 42.3407 67.5418 42.3656 67.5963 42.3573C67.6552 42.349 67.7006 42.3117 67.7142 42.2578C67.7913 41.918 68.0906 41.7977 68.3492 41.7977C69.7371 41.7977 71.9958 42.9003 72.9982 44.0651C73.0027 44.0692 73.0027 44.0775 73.0027 44.0816C72.9982 44.0899 72.9936 44.0982 72.9846 44.1024C72.4267 44.3469 72.0049 44.7158 71.5967 45.0764C70.8982 45.6899 70.236 46.2702 68.9705 46.1624C68.9025 46.1583 68.839 46.1873 68.8073 46.2412C68.7755 46.2909 68.78 46.3531 68.8163 46.3987C69.093 46.7427 69.6509 46.9541 70.2677 46.9541C71.0796 46.9541 71.7645 46.8546 72.5582 46.6184C72.7306 46.5686 72.9029 46.5147 73.0707 46.4609C74.0141 46.1707 74.9031 45.8971 75.8012 45.9344C77.3659 45.9966 78.7992 47.0826 80.1826 49.2587C81.3029 51.0162 81.9469 53.1426 81.9469 55.0824C81.9469 59.1362 79.9104 62.8045 76.3636 65.1547C72.9982 67.3847 68.2539 68.6655 63.3464 68.6655C58.1395 68.6655 52.9825 67.2355 48.0206 64.4169C44.8048 62.589 41.5755 60.2346 37.8472 57.0016C37.7747 56.9394 37.6567 56.9352 37.5796 56.9933C36.6317 57.7186 35.7382 58.3114 34.8447 58.8046C34.7902 58.8336 34.7539 58.8834 34.7494 58.9414C34.7403 58.9994 34.763 59.0533 34.8084 59.0948C38.3824 62.2781 42.1923 64.9019 46.4467 67.1195C52.1525 70.0914 57.3594 71.4137 63.3373 71.4137C69.0794 71.4137 74.5992 70.0002 78.4772 67.5298C83.4255 64.3838 85.6298 60.5455 85.6298 55.0824C85.6389 52.4835 84.8179 49.8473 83.2577 47.4722ZM71.252 41.3832C71.2157 41.3957 71.1794 41.4123 71.1431 41.4247C70.9889 41.4827 70.871 41.5283 70.7213 41.4993C70.5444 41.462 70.4673 41.3501 70.3766 41.2257C70.363 41.205 70.3494 41.1843 70.3358 41.1677C70.3584 41.1511 70.3811 41.1387 70.4038 41.1221C70.5399 41.0309 70.6805 40.9356 70.8483 40.9729C71.0342 41.0143 71.1114 41.1428 71.1885 41.2796C71.2021 41.3086 71.2247 41.3501 71.252 41.3832Z" fill="#E6E6E6"/>
<path d="M103.106 58.8792C102.148 58.3528 101.237 57.7352 100.361 57.0637C100.316 57.0264 100.244 57.0306 100.198 57.0679C97.0323 59.8118 93.6442 62.4273 90.0112 64.4915C85.9745 66.7879 82.219 67.9484 78.8491 68.4458C78.7901 68.4541 78.7266 68.479 78.6949 68.4997C77.0212 69.4987 74.7081 70.3608 72.6671 70.9577C72.5627 70.9909 72.5763 71.1318 72.6897 71.1442C74.504 71.3183 76.2729 71.3432 77.9828 71.2147C82.3234 70.8292 86.6322 69.6147 91.5125 67.0739C95.8758 64.8024 99.6675 62.1496 103.137 59.0616C103.187 59.0036 103.174 58.9165 103.106 58.8792Z" fill="#E6E6E6"/>
<path d="M109.306 50.9167H109.233C107.374 50.9416 106.135 51.6669 105.056 52.6327C104.988 52.6949 104.997 52.7985 105.074 52.8483C106.09 53.4907 107.142 53.9964 108.226 54.1954C108.285 54.2078 108.349 54.1954 108.399 54.1664C108.839 53.9177 109.347 53.7353 109.904 53.7353C110.435 53.7353 111.124 53.9923 111.124 54.4275C111.124 55.0948 109.927 55.3767 109.17 55.3767C108.598 55.3767 108.045 55.3021 107.505 55.1653C104.729 54.4731 101.763 51.8783 99.5723 50.0255C91.7756 43.406 83.0491 37.9097 72.3813 36.9481C70.7077 36.7989 69.6464 36.8072 68.9978 36.7989C68.2902 36.7864 66.9159 36.8279 65.6142 36.9481C54.951 37.9097 46.2245 43.406 38.4142 50.0172C36.2235 51.87 33.2572 54.4648 30.4814 55.157C29.9417 55.2938 29.3838 55.3684 28.8168 55.3684C28.0549 55.3684 26.862 55.0865 26.862 54.4192C26.862 53.984 27.5514 53.727 28.0821 53.727C28.64 53.727 29.1525 53.9094 29.5879 54.1581C29.6423 54.1871 29.7013 54.1995 29.7603 54.1871C30.8443 53.9923 31.9011 53.4824 32.9125 52.84C32.9896 52.7902 32.9987 52.6866 32.9306 52.6244C31.8557 51.6628 30.6129 50.9333 28.7533 50.9084H28.6808C26.1907 50.9167 23.932 52.4379 24 55.1073C24.0771 57.329 25.905 59.3932 29.2976 59.3932C31.0529 59.3932 32.0054 59.0823 33.552 58.3279C36.3641 56.9601 38.8632 54.6389 41.063 52.5208C48.1068 45.7562 55.5406 39.6879 65.841 38.6641C67.0021 38.5481 68.2766 38.4983 69.0023 38.5107C69.8278 38.5232 70.6533 38.5149 72.1636 38.6641C82.4594 39.6879 89.8978 45.7562 96.9416 52.5208C99.1459 54.6347 101.641 56.9601 104.453 58.3279C105.999 59.0823 106.947 59.3932 108.707 59.3932C112.1 59.3932 113.923 57.329 114.005 55.1073C114.068 52.4379 111.805 50.9167 109.306 50.9167Z" fill="#E6E6E6"/>
</g>
<defs>
<filter id="filter0_dddddd_69_49" x="-429.6" y="-418.6" width="997.2" height="954.2" filterUnits="userSpaceOnUse" color-interpolation-filters="sRGB">
<feFlood flood-opacity="0" result="BackgroundImageFix"/>
<feColorMatrix in="SourceAlpha" type="matrix" values="0 0 0 0 0 0 0 0 0 0 0 0 0 0 0 0 0 0 127 0" result="hardAlpha"/>
<feOffset/>
<feGaussianBlur stdDeviation="5.4"/>
<feColorMatrix type="matrix" values="0 0 0 0 1 0 0 0 0 1 0 0 0 0 1 0 0 0 1 0"/>
<feBlend mode="normal" in2="BackgroundImageFix" result="effect1_dropShadow_69_49"/>
<feColorMatrix in="SourceAlpha" type="matrix" values="0 0 0 0 0 0 0 0 0 0 0 0 0 0 0 0 0 0 127 0" result="hardAlpha"/>
<feOffset/>
<feGaussianBlur stdDeviation="10.8"/>
<feColorMatrix type="matrix" values="0 0 0 0 1 0 0 0 0 1 0 0 0 0 1 0 0 0 1 0"/>
<feBlend mode="normal" in2="effect1_dropShadow_69_49" result="effect2_dropShadow_69_49"/>
<feColorMatrix in="SourceAlpha" type="matrix" values="0 0 0 0 0 0 0 0 0 0 0 0 0 0 0 0 0 0 127 0" result="hardAlpha"/>
<feOffset/>
<feGaussianBlur stdDeviation="37.8"/>
<feColorMatrix type="matrix" values="0 0 0 0 1 0 0 0 0 1 0 0 0 0 1 0 0 0 1 0"/>
<feBlend mode="normal" in2="effect2_dropShadow_69_49" result="effect3_dropShadow_69_49"/>
<feColorMatrix in="SourceAlpha" type="matrix" values="0 0 0 0 0 0 0 0 0 0 0 0 0 0 0 0 0 0 127 0" result="hardAlpha"/>
<feOffset/>
<feGaussianBlur stdDeviation="75.6"/>
<feColorMatrix type="matrix" values="0 0 0 0 1 0 0 0 0 1 0 0 0 0 1 0 0 0 1 0"/>
<feBlend mode="normal" in2="effect3_dropShadow_69_49" result="effect4_dropShadow_69_49"/>
<feColorMatrix in="SourceAlpha" type="matrix" values="0 0 0 0 0 0 0 0 0 0 0 0 0 0 0 0 0 0 127 0" result="hardAlpha"/>
<feOffset/>
<feGaussianBlur stdDeviation="129.6"/>
<feColorMatrix type="matrix" values="0 0 0 0 1 0 0 0 0 1 0 0 0 0 1 0 0 0 1 0"/>
<feBlend mode="normal" in2="effect4_dropShadow_69_49" result="effect5_dropShadow_69_49"/>
<feColorMatrix in="SourceAlpha" type="matrix" values="0 0 0 0 0 0 0 0 0 0 0 0 0 0 0 0 0 0 127 0" result="hardAlpha"/>
<feOffset/>
<feGaussianBlur stdDeviation="226.8"/>
<feColorMatrix type="matrix" values="0 0 0 0 1 0 0 0 0 1 0 0 0 0 1 0 0 0 1 0"/>
<feBlend mode="normal" in2="effect5_dropShadow_69_49" result="effect6_dropShadow_69_49"/>
<feBlend mode="normal" in="SourceGraphic" in2="effect6_dropShadow_69_49" result="shape"/>
</filter>
<clipPath id="clip0_69_49">
<rect width="90" height="47" fill="white" transform="translate(24 35)"/>
</clipPath>
</defs>
</svg>
